<svg width="42" height="36" viewBox="0 0 42 36" fill="none" xmlns="http://www.w3.org/2000/svg">
<path id="Vector" d="M41 10.854C41 13.3622 40.0486 15.8919 38.1243 17.8162L34.9243 21.0162L21.1513 34.7892C21.0865 34.854 21.0649 34.8757 21 34.9189C20.9351 34.8757 20.9135 34.854 20.8486 34.7892L3.87568 17.8162C1.95136 15.8919 1 13.3838 1 10.854C1 8.32431 1.95136 5.79459 3.87568 3.87027C7.72433 0.0432433 13.9513 0.0432433 17.8 3.87027L20.9784 7.07026L24.1784 3.87027C28.027 0.0432433 34.2324 0.0432433 38.0811 3.87027C40.0487 5.79459 41 8.30269 41 10.854Z" stroke="#A68B67" stroke-width="1.5" stroke-linecap="round" stroke-linejoin="round"/>
</svg>
