<svg width="44" height="44" viewBox="0 0 44 44" fill="none" xmlns="http://www.w3.org/2000/svg">
<g id="Phone call">
<path id="Vector" d="M26.0734 6.51414C26.1192 6.33935 26.1993 6.17545 26.3092 6.03203C26.4191 5.88861 26.5565 5.76857 26.7134 5.67893C26.8702 5.58929 27.0434 5.53186 27.2228 5.51C27.4021 5.48815 27.584 5.5023 27.7578 5.55164C30.321 6.23909 32.6582 7.58884 34.5347 9.46535C36.4112 11.3419 37.761 13.6791 38.4484 16.2423C38.4978 16.4161 38.5119 16.598 38.4901 16.7773C38.4682 16.9567 38.4108 17.1298 38.3211 17.2867C38.2315 17.4436 38.1115 17.581 37.968 17.6909C37.8246 17.8007 37.6607 17.8809 37.4859 17.9266C37.3686 17.9606 37.2471 17.978 37.125 17.9782C36.8215 17.9765 36.5271 17.8744 36.2878 17.6878C36.0484 17.5013 35.8774 17.2408 35.8016 16.9469C35.2298 14.854 34.1221 12.9463 32.5879 11.4121C31.0538 9.87795 29.1461 8.77031 27.0531 8.19851C26.8768 8.15466 26.711 8.07586 26.5657 7.96679C26.4204 7.85771 26.2984 7.72057 26.2071 7.5635C26.1157 7.40643 26.0568 7.23262 26.0339 7.05237C26.0109 6.87212 26.0244 6.68909 26.0734 6.51414ZM25.6266 13.5094C26.79 13.8279 27.8503 14.4439 28.7032 15.2968C29.5561 16.1497 30.1722 17.2101 30.4906 18.3735C30.5638 18.6688 30.734 18.931 30.974 19.118C31.214 19.305 31.5098 19.406 31.8141 19.4048C31.9307 19.4059 32.0467 19.3885 32.1578 19.3532C32.3342 19.3094 32.4999 19.2306 32.6452 19.1215C32.7905 19.0124 32.9125 18.8753 33.0039 18.7182C33.0952 18.5611 33.1541 18.3873 33.1771 18.2071C33.2 18.0268 33.1866 17.8438 33.1375 17.6688C32.7034 16.0352 31.8453 14.5453 30.6501 13.35C29.4548 12.1548 27.9649 11.2966 26.3312 10.8626C26.1519 10.7972 25.9609 10.77 25.7704 10.7825C25.5799 10.795 25.3942 10.847 25.2249 10.9353C25.0556 11.0235 24.9066 11.1461 24.7873 11.2951C24.668 11.4441 24.581 11.6163 24.5319 11.8008C24.4828 11.9852 24.4726 12.1779 24.502 12.3665C24.5315 12.5551 24.5998 12.7355 24.7028 12.8963C24.8058 13.057 24.9411 13.1945 25.1001 13.3001C25.2592 13.4057 25.4385 13.477 25.6266 13.5094ZM39.8063 30.0954C39.5022 32.4164 38.3656 34.548 36.6079 36.094C34.8502 37.6399 32.5908 38.4949 30.25 38.5001C16.6031 38.5001 5.5 27.397 5.5 13.7501C5.50516 11.4092 6.36019 9.14992 7.90612 7.39218C9.45204 5.63443 11.5837 4.49788 13.9047 4.19382C14.4964 4.12822 15.0935 4.25279 15.6096 4.54947C16.1258 4.84616 16.5339 5.29952 16.775 5.84382L20.2297 13.9048C20.4089 14.3232 20.4807 14.7797 20.4387 15.233C20.3967 15.6862 20.2421 16.1217 19.9891 16.5001L17.1359 20.8657C18.4279 23.4876 20.5567 25.6043 23.1859 26.8813L27.5 24.011C27.8779 23.7562 28.3146 23.602 28.7687 23.5629C29.2228 23.5238 29.6794 23.6012 30.0953 23.7876L38.1562 27.2251C38.7006 27.4661 39.1539 27.8743 39.4506 28.3904C39.7473 28.9065 39.8719 29.5037 39.8063 30.0954ZM37.0734 29.7516L29.0125 26.3141L24.7156 29.1845C24.3203 29.4458 23.8641 29.6006 23.3913 29.6337C22.9185 29.6668 22.4451 29.5772 22.0172 29.3735C18.8151 27.8246 16.2249 25.2465 14.6609 22.0516C14.4547 21.6251 14.3622 21.1526 14.3923 20.6798C14.4224 20.2071 14.5742 19.7501 14.8328 19.3532L17.7031 14.9876L14.2484 6.92664C12.5898 7.13986 11.0657 7.95035 9.96152 9.20635C8.85738 10.4624 8.24889 12.0777 8.25 13.7501C8.25455 19.5834 10.5739 25.1766 14.6987 29.3014C18.8235 33.4262 24.4166 35.7455 30.25 35.7501C31.9223 35.7512 33.5377 35.1427 34.7937 34.0386C36.0497 32.9344 36.8602 31.4103 37.0734 29.7516Z" fill="#896E4B"/>
</g>
</svg>
