<svg width="44" height="45" viewBox="0 0 44 45" fill="none" xmlns="http://www.w3.org/2000/svg">
<g id="Phone call">
<path id="Vector" d="M26.0734 7.43308C26.1192 7.25829 26.1993 7.09439 26.3092 6.95098C26.4191 6.80756 26.5565 6.68752 26.7134 6.59788C26.8702 6.50824 27.0434 6.45081 27.2228 6.42895C27.4021 6.40709 27.584 6.42125 27.7578 6.47058C30.321 7.15804 32.6582 8.50779 34.5347 10.3843C36.4112 12.2608 37.761 14.598 38.4484 17.1612C38.4978 17.335 38.5119 17.5169 38.4901 17.6963C38.4682 17.8756 38.4108 18.0488 38.3211 18.2057C38.2315 18.3625 38.1115 18.4999 37.968 18.6098C37.8246 18.7197 37.6607 18.7998 37.4859 18.8456C37.3686 18.8796 37.2471 18.8969 37.125 18.8971C36.8215 18.8954 36.5271 18.7933 36.2878 18.6068C36.0484 18.4202 35.8774 18.1597 35.8016 17.8659C35.2298 15.7729 34.1221 13.8653 32.5879 12.3311C31.0538 10.7969 29.1461 9.68926 27.0531 9.11746C26.8768 9.07361 26.711 8.99481 26.5657 8.88573C26.4204 8.77666 26.2984 8.63952 26.2071 8.48245C26.1157 8.32538 26.0568 8.15157 26.0339 7.97132C26.0109 7.79106 26.0244 7.60804 26.0734 7.43308ZM25.6266 14.4284C26.79 14.7469 27.8503 15.3629 28.7032 16.2158C29.5561 17.0687 30.1722 18.1291 30.4906 19.2925C30.5638 19.5878 30.734 19.8499 30.974 20.037C31.214 20.224 31.5098 20.3249 31.8141 20.3237C31.9307 20.3248 32.0467 20.3074 32.1578 20.2721C32.3342 20.2283 32.4999 20.1495 32.6452 20.0404C32.7905 19.9313 32.9125 19.7942 33.0039 19.6371C33.0952 19.4801 33.1541 19.3063 33.1771 19.126C33.2 18.9458 33.1866 18.7627 33.1375 18.5878C32.7034 16.9541 31.8453 15.4642 30.6501 14.269C29.4548 13.0737 27.9649 12.2156 26.3312 11.7815C26.1519 11.7162 25.9609 11.6889 25.7704 11.7014C25.5799 11.7139 25.3942 11.766 25.2249 11.8542C25.0556 11.9425 24.9066 12.065 24.7873 12.214C24.668 12.363 24.581 12.5352 24.5319 12.7197C24.4828 12.9042 24.4726 13.0968 24.502 13.2854C24.5315 13.4741 24.5998 13.6545 24.7028 13.8152C24.8058 13.9759 24.9411 14.1135 25.1001 14.219C25.2592 14.3246 25.4385 14.3959 25.6266 14.4284ZM39.8063 31.0143C39.5022 33.3353 38.3656 35.467 36.6079 37.0129C34.8502 38.5588 32.5908 39.4139 30.25 39.419C16.6031 39.419 5.5 28.3159 5.5 14.669C5.50516 12.3282 6.36019 10.0689 7.90612 8.31112C9.45204 6.55338 11.5837 5.41682 13.9047 5.11277C14.4964 5.04717 15.0935 5.17174 15.6096 5.46842C16.1258 5.7651 16.5339 6.21847 16.775 6.76277L20.2297 14.8237C20.4089 15.2421 20.4807 15.6987 20.4387 16.1519C20.3967 16.6051 20.2421 17.0407 19.9891 17.419L17.1359 21.7846C18.4279 24.4066 20.5567 26.5233 23.1859 27.8003L27.5 24.93C27.8779 24.6752 28.3146 24.521 28.7687 24.4819C29.2228 24.4428 29.6794 24.5201 30.0953 24.7065L38.1562 28.144C38.7006 28.3851 39.1539 28.7933 39.4506 29.3094C39.7473 29.8255 39.8719 30.4227 39.8063 31.0143ZM37.0734 30.6706L29.0125 27.2331L24.7156 30.1034C24.3203 30.3648 23.8641 30.5195 23.3913 30.5527C22.9185 30.5858 22.4451 30.4961 22.0172 30.2925C18.8151 28.7435 16.2249 26.1654 14.6609 22.9706C14.4547 22.5441 14.3622 22.0716 14.3923 21.5988C14.4224 21.126 14.5742 20.669 14.8328 20.2721L17.7031 15.9065L14.2484 7.84558C12.5898 8.0588 11.0657 8.86929 9.96152 10.1253C8.85738 11.3813 8.24889 12.9967 8.25 14.669C8.25455 20.5024 10.5739 26.0955 14.6987 30.2203C18.8235 34.3452 24.4166 36.6645 30.25 36.669C31.9223 36.6701 33.5377 36.0616 34.7937 34.9575C36.0497 33.8534 36.8602 32.3293 37.0734 30.6706Z" fill="white"/>
</g>
</svg>
