<svg width="134" height="135" viewBox="0 0 134 135" fill="none" xmlns="http://www.w3.org/2000/svg">
<g id="Group 5">
<circle id="Ellipse 1" cx="66.9996" cy="67.3365" r="61.5333" fill="white"/>
<path id="Vector" d="M67 0.586914C53.7981 0.586914 40.8927 4.50173 29.9157 11.8363C18.9387 19.1709 10.3832 29.5958 5.33107 41.7928C0.278921 53.9897 -1.04295 67.4109 1.53261 80.3592C4.10818 93.3074 10.4655 105.201 19.8006 114.536C29.1358 123.871 41.0295 130.229 53.9777 132.804C66.926 135.38 80.3472 134.058 92.5441 129.006C104.741 123.954 115.166 115.398 122.501 104.421C129.835 93.4442 133.75 80.5388 133.75 67.3369C133.715 49.6443 126.672 32.6863 114.161 20.1757C101.651 7.66518 84.6926 0.621504 67 0.586914ZM67 126.234C55.3513 126.234 43.9641 122.78 34.2786 116.308C24.593 109.836 17.044 100.638 12.5862 89.8758C8.12846 79.1138 6.9621 67.2716 9.23466 55.8467C11.5072 44.4217 17.1166 33.9273 25.3535 25.6904C33.5904 17.4535 44.0849 11.8441 55.5098 9.57154C66.9347 7.29899 78.7769 8.46535 89.5389 12.9231C100.301 17.3809 109.499 24.9299 115.971 34.6155C122.443 44.301 125.897 55.6882 125.897 67.3369C125.88 82.952 119.669 97.9227 108.627 108.964C97.5858 120.006 82.6152 126.217 67 126.234ZM90.1007 64.0648L58.689 43.1237C58.0975 42.7342 57.4117 42.5119 56.7042 42.4803C55.9967 42.4488 55.2939 42.6092 54.6701 42.9446C54.0463 43.2799 53.5249 43.7778 53.161 44.3853C52.7971 44.9929 52.6043 45.6875 52.603 46.3957V88.2781C52.6037 88.9919 52.7991 89.6921 53.1681 90.3032C53.5371 90.9143 54.0657 91.4133 54.6971 91.7465C55.3171 92.081 56.0168 92.2396 56.7204 92.205C57.4241 92.1704 58.1048 91.9439 58.689 91.5501L90.1007 70.609C90.6407 70.2508 91.0836 69.7646 91.39 69.1936C91.6964 68.6227 91.8568 67.9848 91.8568 67.3369C91.8568 66.6889 91.6964 66.0511 91.39 65.4802C91.0836 64.9092 90.6407 64.423 90.1007 64.0648ZM60.4559 80.9487V53.7251L80.8735 67.3369L60.4559 80.9487Z" fill="#A4855A"/>
</g>
</svg>
