<svg width="74" height="74" viewBox="0 0 74 74" fill="none" xmlns="http://www.w3.org/2000/svg">
<path id="Vector" d="M19.5 37L30.875 50.3939L57.125 27.6237M72 37C72 41.5963 71.0947 46.1475 69.3358 50.3939C67.5769 54.6403 64.9988 58.4987 61.7487 61.7487C58.4987 64.9988 54.6403 67.5769 50.3939 69.3358C46.1475 71.0947 41.5963 72 37 72C32.4037 72 27.8525 71.0947 23.6061 69.3358C19.3597 67.5769 15.5013 64.9988 12.2513 61.7487C9.00121 58.4987 6.42313 54.6403 4.66422 50.3939C2.9053 46.1475 2 41.5963 2 37C2 27.7174 5.68749 18.815 12.2513 12.2513C18.815 5.68749 27.7174 2 37 2C46.2826 2 55.185 5.68749 61.7487 12.2513C68.3125 18.815 72 27.7174 72 37Z" stroke="#A68B67" stroke-width="4" stroke-linecap="round" stroke-linejoin="round"/>
</svg>
